<?xml version="1.0" encoding="UTF-8"?>
<!DOCTYPE svg PUBLIC "-//W3C//DTD SVG 1.1//EN" "http://www.w3.org/Graphics/SVG/1.1/DTD/svg11.dtd">
<svg xmlns="http://www.w3.org/2000/svg" version="1.1" width="150px" height="138px" style="shape-rendering:geometricPrecision; text-rendering:geometricPrecision; image-rendering:optimizeQuality; fill-rule:evenodd; clip-rule:evenodd" xmlns:xlink="http://www.w3.org/1999/xlink">
<g><path style="opacity:1" fill="#1e1e1e" d="M -0.5,-0.5 C 49.5,-0.5 99.5,-0.5 149.5,-0.5C 149.5,45.5 149.5,91.5 149.5,137.5C 99.5,137.5 49.5,137.5 -0.5,137.5C -0.5,91.5 -0.5,45.5 -0.5,-0.5 Z"/></g>
<g><path style="opacity:1" fill="#dddcdc" d="M 55.5,40.5 C 60.4237,39.9621 64.4237,41.6288 67.5,45.5C 69.3159,44.1851 70.9825,42.6851 72.5,41C 82.1666,39.6692 85.9999,43.8359 84,53.5C 80.5951,62.08 75.0951,69.08 67.5,74.5C 60.3307,69.1683 54.8307,62.5017 51,54.5C 49.3085,48.6102 50.8085,43.9436 55.5,40.5 Z"/></g>
<g><path style="opacity:1" fill="#e6e6e6" d="M 100.5,46.5 C 101.675,46.281 102.675,46.6143 103.5,47.5C 99.8333,55.5 96.1667,63.5 92.5,71.5C 91.1667,72.8333 89.8333,72.8333 88.5,71.5C 92.506,63.1369 96.506,54.8036 100.5,46.5 Z"/></g>
<g><path style="opacity:1" fill="#ececec" d="M 43.5,52.5 C 44.5,52.5 45.5,52.5 46.5,52.5C 46.719,53.675 46.3857,54.675 45.5,55.5C 42.0903,56.9108 38.757,58.4108 35.5,60C 39.0207,61.6738 42.6873,62.8404 46.5,63.5C 46.7809,68.0001 45.1142,68.8335 41.5,66C 38.1667,64.6667 34.8333,63.3333 31.5,62C 30.6198,60.6439 30.2865,59.1439 30.5,57.5C 35.1323,56.4039 39.4656,54.7372 43.5,52.5 Z"/></g>
<g><path style="opacity:1" fill="#ededed" d="M 106.5,52.5 C 110.911,53.6927 115.244,55.1927 119.5,57C 121.18,57.3468 122.18,58.3468 122.5,60C 117.838,62.9979 112.838,65.4979 107.5,67.5C 106.571,66.3112 106.238,64.9778 106.5,63.5C 110.168,62.4445 113.835,61.2778 117.5,60C 114.167,58.6667 110.833,57.3333 107.5,56C 106.663,54.9887 106.33,53.8221 106.5,52.5 Z"/></g>
</svg>
